<?xml version="1.0" standalone="no"?>
<!DOCTYPE svg PUBLIC "-//W3C//DTD SVG 20010904//EN"
 "http://www.w3.org/TR/2001/REC-SVG-20010904/DTD/svg10.dtd">
<svg version="1.0" xmlns="http://www.w3.org/2000/svg"
 width="1304.000000pt" height="1304.000000pt" viewBox="0 0 1304.000000 1304.000000"
 preserveAspectRatio="xMidYMid meet">
<metadata>
Created by potrace 1.14, written by Peter Selinger 2001-2017
</metadata>
<g transform="translate(0.000000,1304.000000) scale(0.100000,-0.100000)"
fill="#000000" stroke="none">
<path d="M5236 11145 c-3 -8 -1 -15 4 -15 6 0 10 7 10 15 0 8 -2 15 -4 15 -2
0 -6 -7 -10 -15z"/>
<path d="M5245 11120 c-3 -5 -1 -10 4 -10 6 0 11 -5 11 -11 0 -5 -6 -7 -12 -3
-10 5 -10 4 -1 -6 6 -7 9 -19 6 -26 -3 -8 0 -14 6 -14 6 0 11 -5 11 -11 0 -5
-6 -7 -12 -4 -7 4 -6 1 2 -7 8 -7 14 -25 12 -40 -2 -16 1 -28 5 -28 8 0 12
-15 15 -57 1 -7 6 -13 11 -13 5 0 7 -6 4 -14 -3 -7 0 -19 6 -25 6 -6 7 -11 3
-11 -5 0 -3 -6 3 -14 7 -8 13 -28 13 -45 1 -17 4 -31 8 -31 7 0 8 -8 11 -55 1
-14 5 -25 10 -25 5 0 9 -9 9 -19 0 -11 5 -32 12 -48 6 -15 11 -31 10 -34 -1
-4 10 -37 25 -75 14 -38 28 -80 31 -94 3 -14 9 -28 14 -31 5 -3 10 -15 13 -27
2 -11 8 -29 13 -39 5 -10 8 -26 7 -35 -2 -10 0 -18 3 -18 8 0 38 -63 33 -69
-1 -2 3 -7 9 -11 7 -4 13 -19 13 -34 1 -14 5 -26 8 -26 3 0 11 -19 18 -42 7
-24 16 -52 21 -63 14 -30 28 -69 26 -76 0 -3 6 -14 14 -24 10 -13 11 -16 2
-11 -11 7 -11 4 0 -13 7 -12 16 -21 19 -21 9 0 -5 -61 -32 -135 -32 -91 -75
-176 -110 -215 -17 -19 -42 -53 -57 -75 -14 -22 -31 -45 -38 -51 -7 -6 -14
-17 -16 -25 -2 -8 -10 -21 -19 -29 -13 -13 -23 -32 -31 -58 -1 -4 -6 -12 -12
-19 -6 -6 -38 -42 -71 -79 -33 -37 -94 -102 -136 -146 -42 -43 -74 -78 -72
-78 6 0 -521 -523 -667 -662 -74 -71 -135 -128 -136 -128 -1 0 -37 -34 -79
-75 -43 -41 -80 -75 -82 -75 -1 0 -28 -25 -58 -55 -30 -30 -57 -55 -60 -55 -3
0 -19 -16 -36 -35 -17 -19 -38 -35 -46 -35 -8 0 -12 -3 -10 -7 2 -5 -11 -22
-30 -40 -18 -17 -33 -30 -33 -28 0 1 -22 -18 -49 -44 -111 -105 -201 -189
-201 -186 0 2 -26 -22 -59 -53 -126 -123 -203 -192 -212 -192 -6 0 -8 -3 -6
-7 3 -5 -6 -17 -20 -28 -33 -26 -175 -160 -274 -258 -43 -43 -79 -75 -79 -71
0 4 -13 -10 -30 -31 -16 -21 -30 -34 -30 -30 0 4 -13 -9 -30 -30 -16 -21 -30
-35 -30 -31 0 3 -22 -16 -49 -44 -47 -47 -49 -49 -84 -39 -52 14 -165 18 -230
8 -194 -31 -386 -137 -562 -314 -98 -98 -159 -187 -170 -250 -9 -46 -27 -86
-49 -104 -20 -17 -30 -84 -30 -205 -1 -88 -3 -100 -21 -110 -11 -6 -22 -14
-25 -17 -13 -14 -100 -69 -110 -69 -6 0 -8 -4 -5 -10 3 -6 0 -10 -8 -10 -8 0
-20 -7 -27 -15 -7 -8 -16 -13 -20 -10 -4 3 -11 -2 -14 -11 -4 -9 -9 -14 -12
-11 -4 3 -15 -2 -25 -12 -11 -10 -32 -24 -47 -32 -37 -19 -42 -28 -42 -77 0
-45 23 -69 41 -41 6 10 9 10 9 2 0 -7 11 -15 25 -19 20 -5 23 -9 14 -20 -6 -8
-19 -14 -29 -14 -10 0 -28 -9 -41 -19 -38 -31 -16 -55 49 -55 29 -1 52 1 52 4
0 3 16 6 35 7 19 1 35 -2 35 -6 0 -8 15 -11 50 -11 35 0 50 3 50 12 0 4 27 6
60 4 36 -2 60 0 60 6 0 6 -6 8 -14 5 -9 -4 -13 0 -12 11 3 18 26 30 26 12 0
-6 4 -9 9 -5 5 3 15 -1 23 -8 14 -14 20 -17 41 -17 7 0 19 -17 26 -37 8 -21
28 -69 46 -108 17 -38 51 -117 75 -175 23 -58 46 -114 51 -125 5 -11 15 -38
23 -60 8 -22 24 -65 36 -95 12 -30 24 -71 27 -90 3 -19 9 -40 13 -45 17 -21 3
-148 -23 -212 -35 -86 -69 -133 -150 -211 -61 -58 -164 -119 -232 -137 -47
-12 -135 -14 -165 -4 -76 27 -103 146 -71 316 17 89 41 154 104 278 74 143 76
209 11 252 -67 43 -163 3 -276 -114 -170 -180 -251 -363 -252 -573 -1 -241
110 -379 359 -446 69 -18 272 -27 330 -14 22 5 56 12 75 15 97 16 310 107 415
177 61 40 112 94 120 126 3 13 27 53 54 90 26 37 58 87 71 112 12 25 27 53 32
63 20 39 44 193 42 261 -5 130 -47 270 -119 399 -15 27 -29 65 -30 85 -1 21
-29 93 -64 164 -33 70 -61 131 -61 137 0 6 10 12 23 13 12 0 28 2 35 2 7 1 16
6 20 11 4 6 16 11 27 13 11 2 27 6 35 9 8 3 20 7 25 8 6 0 17 4 25 7 28 11 83
28 92 28 5 0 7 -4 4 -9 -10 -15 25 -22 42 -9 8 7 31 14 50 14 30 2 77 19 92
34 10 11 60 40 60 36 0 -3 14 8 32 24 17 16 34 27 36 25 3 -3 12 3 21 13 9 10
34 31 56 48 22 16 46 35 53 42 7 6 18 12 23 12 6 0 7 5 4 10 -3 6 -2 10 4 10
5 0 33 23 62 50 29 28 54 50 56 50 2 0 14 10 27 23 129 124 211 191 224 183 6
-3 32 20 59 51 51 61 134 142 162 157 9 5 20 15 24 23 5 7 12 11 18 8 5 -4 9
-1 9 5 0 6 11 15 25 20 14 5 25 14 25 20 0 5 7 10 15 10 8 0 24 9 35 20 11 11
20 17 20 14 0 -4 7 -1 15 6 8 7 15 9 15 4 0 -4 7 1 15 12 8 10 15 15 15 11 0
-4 18 9 41 30 55 51 77 62 108 53 14 -4 31 -3 36 1 6 5 27 23 47 41 20 18 45
40 55 48 10 8 46 39 81 68 35 28 68 52 74 52 6 0 9 3 5 6 -3 3 22 29 56 57 34
28 65 56 69 61 4 6 8 8 8 4 0 -5 8 0 18 10 40 38 73 62 84 62 6 0 9 2 6 5 -3
3 12 23 33 45 22 22 39 43 39 48 0 12 121 134 210 212 47 40 88 78 92 84 4 6
8 8 8 5 0 -4 25 17 55 46 30 29 57 50 60 47 3 -3 5 3 5 13 0 10 3 15 6 12 7
-6 32 19 97 96 18 22 40 48 50 59 9 12 17 25 17 29 0 4 8 10 18 13 9 3 42 31
72 61 62 61 62 62 109 128 19 26 38 47 43 47 4 0 8 4 8 10 0 14 76 87 113 107
17 10 38 23 45 28 19 14 191 185 186 185 -4 0 6 12 61 74 32 37 75 96 75 104
0 6 7 13 16 16 9 4 14 9 11 12 -3 3 6 17 21 31 15 14 26 28 26 31 -1 7 73 122
85 132 3 3 12 17 20 32 8 15 22 37 33 47 10 11 18 25 18 31 0 5 5 10 10 10 6
0 10 6 10 13 0 6 14 28 30 47 16 19 30 38 30 43 0 4 8 16 18 26 9 11 25 30 34
43 44 58 64 84 78 101 18 22 83 92 84 91 1 0 12 -6 24 -13 13 -7 21 -15 18
-18 -5 -6 49 -79 88 -119 12 -12 33 -34 47 -50 32 -36 99 -97 163 -149 28 -22
69 -58 93 -81 23 -23 45 -39 48 -36 3 3 5 -3 5 -13 0 -10 3 -16 6 -13 6 7 268
-254 394 -391 41 -45 91 -99 110 -119 19 -21 60 -67 90 -102 30 -35 69 -78 85
-97 59 -67 76 -87 113 -131 20 -24 52 -59 69 -78 18 -19 31 -34 28 -34 -3 0
10 -16 28 -35 38 -41 51 -56 95 -110 58 -70 106 -127 139 -161 17 -19 28 -34
25 -34 -4 0 1 -5 11 -11 9 -5 17 -15 17 -21 0 -6 -11 -3 -26 7 -40 26 -168 56
-246 57 -16 0 -28 4 -28 9 0 5 -11 4 -25 -1 -13 -5 -26 -6 -29 -1 -3 4 -26 7
-51 6 -25 -1 -45 0 -45 4 0 3 -11 6 -25 6 -14 0 -25 -2 -25 -5 0 -3 -19 -6
-43 -6 -76 -3 -211 -13 -257 -19 -25 -4 -51 -7 -57 -8 -7 0 -13 -3 -13 -7 0
-5 -22 -10 -62 -13 -10 -1 -18 -5 -18 -9 0 -4 -8 -7 -17 -7 -36 -1 -53 -5 -53
-11 0 -3 -14 -7 -32 -8 -18 -2 -35 -7 -39 -13 -3 -6 -9 -10 -13 -10 -3 1 -8 0
-11 0 -3 -1 -14 -3 -25 -4 -11 -1 -21 -3 -22 -5 -2 -1 -16 -4 -33 -6 -16 -3
-32 -9 -33 -15 -2 -5 -8 -7 -12 -4 -5 3 -25 -1 -44 -9 -19 -8 -37 -12 -40 -9
-3 3 -9 -2 -12 -11 -5 -14 -9 -15 -15 -4 -7 10 -9 11 -9 0 0 -7 -4 -10 -10 -7
-5 3 -10 2 -10 -4 0 -5 -8 -8 -17 -7 -10 2 -21 -1 -24 -7 -4 -5 -20 -10 -36
-12 -33 -3 -122 -33 -137 -47 -6 -4 -18 -8 -28 -8 -10 0 -18 -4 -18 -8 0 -4
-9 -9 -20 -10 -43 -4 -50 -6 -50 -14 0 -4 -7 -8 -15 -8 -8 0 -15 -6 -15 -12 0
-9 -4 -8 -10 2 -6 10 -10 11 -10 3 0 -7 -7 -13 -15 -13 -8 0 -30 -9 -50 -20
-20 -11 -39 -20 -44 -20 -5 0 -29 -9 -55 -20 -25 -12 -49 -20 -52 -20 -4 1
-10 -3 -14 -10 -4 -6 -13 -12 -21 -14 -8 -1 -24 -8 -36 -14 -13 -7 -23 -10
-23 -6 0 4 -9 -1 -20 -11 -11 -10 -20 -14 -20 -9 0 5 -4 4 -8 -2 -8 -13 -142
-76 -142 -67 0 3 -7 0 -15 -7 -8 -7 -15 -9 -15 -5 0 4 -6 3 -12 -3 -7 -5 -27
-13 -44 -16 -17 -4 -45 -23 -63 -43 -30 -33 -31 -37 -15 -54 9 -10 19 -17 23
-16 3 0 15 -4 26 -10 11 -6 28 -9 38 -8 9 2 17 0 17 -5 0 -4 21 -7 46 -6 25 1
47 -1 49 -4 2 -3 32 -4 67 -3 84 4 88 5 88 14 0 5 10 5 22 0 13 -4 30 -5 38
-1 24 12 83 31 105 34 11 2 27 6 35 10 8 3 27 8 43 11 70 13 85 18 126 36 24
10 47 16 52 13 5 -3 9 0 9 7 0 7 3 10 6 7 3 -4 22 1 42 9 20 9 50 18 66 20 16
3 41 10 55 16 14 5 29 11 34 12 4 2 8 3 10 5 3 2 38 9 70 13 15 2 30 7 34 10
3 4 18 7 32 7 14 0 37 6 52 13 14 8 34 13 44 11 10 -2 23 0 29 3 5 4 29 8 52
10 23 1 54 7 69 13 15 6 30 9 32 6 3 -2 19 0 36 5 18 5 66 12 107 15 41 3 93
8 115 10 62 7 325 10 325 4 0 -5 40 -9 118 -13 12 -1 22 -5 22 -9 0 -4 11 -8
25 -8 15 0 39 -7 55 -15 17 -9 31 -15 32 -15 17 -1 48 -14 48 -21 0 -5 7 -9
16 -9 21 0 131 -111 145 -147 11 -24 15 -58 9 -65 -1 -2 -3 -21 -5 -43 -4 -49
-14 -95 -23 -109 -3 -6 -7 -20 -7 -31 0 -11 -6 -29 -12 -40 -6 -11 -13 -36
-16 -56 -2 -20 -8 -42 -11 -48 -4 -6 -10 -23 -12 -38 -3 -15 -8 -31 -12 -37
-3 -6 -8 -19 -9 -29 -2 -10 -10 -34 -19 -55 -8 -20 -14 -37 -13 -37 1 0 -10
-19 -24 -42 -15 -24 -24 -43 -20 -43 5 0 4 -4 -2 -8 -13 -9 -33 -40 -48 -74
-6 -16 -15 -28 -19 -28 -4 0 -8 -7 -8 -15 0 -8 -6 -15 -14 -15 -8 0 -23 -16
-35 -35 -11 -19 -26 -35 -32 -35 -7 0 -10 -3 -6 -6 3 -4 0 -13 -8 -20 -11 -11
-24 -12 -69 -3 -84 17 -160 -7 -247 -79 -46 -37 -138 -165 -164 -227 -23 -53
-32 -65 -51 -65 -13 0 -26 -5 -29 -11 -4 -5 -12 -8 -18 -6 -7 2 -20 0 -30 -5
-25 -13 -57 -20 -84 -20 -13 0 -20 -4 -17 -9 5 -9 -6 -12 -36 -10 -10 0 -11
-1 -2 -5 6 -3 10 -9 8 -13 -3 -4 1 -8 9 -8 8 0 15 4 15 8 0 4 9 5 19 2 10 -3
28 0 40 6 38 21 22 3 -26 -30 -69 -47 -157 -138 -207 -216 -24 -38 -53 -76
-64 -87 -12 -10 -46 -55 -76 -100 -30 -44 -66 -92 -78 -106 -13 -14 -34 -41
-47 -60 -13 -19 -29 -39 -35 -45 -6 -5 -24 -28 -41 -50 -16 -22 -33 -44 -37
-50 -5 -5 -25 -32 -46 -60 -20 -27 -42 -55 -47 -61 -6 -6 -28 -34 -50 -62 -21
-29 -43 -52 -47 -52 -4 0 -8 -6 -8 -14 0 -8 -3 -16 -8 -18 -4 -1 -28 -28 -52
-58 -74 -90 -102 -121 -173 -192 l-67 -69 6 38 c10 69 84 352 129 496 117 379
180 547 204 547 13 0 13 2 2 9 -10 7 -11 12 -1 27 11 18 11 18 5 -1 -4 -15 1
-12 19 10 14 17 25 26 26 21 0 -5 9 -1 20 9 11 10 20 15 20 11 0 -4 14 6 31
23 17 17 35 29 40 25 5 -3 9 5 9 16 0 15 5 20 14 17 8 -3 22 4 33 15 16 18 90
71 103 73 10 2 66 28 102 47 21 11 42 16 48 13 5 -3 10 -1 10 4 0 6 3 10 8 9
13 -4 52 13 52 23 0 5 3 8 8 8 4 -1 19 -1 34 0 20 1 26 5 21 16 -5 14 -8 14
-29 0 -23 -15 -39 -8 -26 11 9 13 62 46 62 39 0 -4 7 1 16 9 8 9 22 16 30 16
9 0 12 5 8 12 -5 7 -1 9 13 6 11 -3 20 0 21 6 0 6 3 20 6 31 2 11 5 24 5 29 1
6 7 3 14 -6 11 -14 16 -14 52 3 22 10 33 19 25 19 -13 0 -13 2 0 9 8 6 18 7
22 5 4 -3 8 0 8 5 0 15 -12 14 -38 -5 -12 -8 -22 -12 -22 -8 0 3 -7 1 -15 -6
-13 -11 -18 -11 -28 0 -8 9 -9 11 0 6 6 -3 20 4 30 17 12 15 29 23 48 23 24 0
31 5 33 24 2 14 10 29 19 33 20 12 -3 39 -27 32 -22 -7 -35 22 -17 39 7 7 20
12 28 10 9 -1 28 9 43 22 14 14 26 22 26 20 0 -3 15 3 33 14 17 11 47 27 65
37 17 9 32 23 32 30 0 7 4 13 10 13 5 0 9 3 9 8 -4 23 6 39 59 91 61 62 102
114 102 130 0 5 6 11 14 14 10 4 13 15 10 31 -4 24 4 31 29 27 4 -1 13 3 20 9
47 40 67 60 67 70 0 5 3 10 8 10 8 0 74 57 72 62 -1 2 2 11 6 21 9 24 1 30
-33 23 -32 -7 -83 -47 -83 -65 0 -6 -7 -11 -15 -11 -8 0 -15 -4 -15 -9 0 -8
-38 -23 -70 -26 -8 -1 -30 -10 -48 -19 -17 -9 -32 -14 -32 -10 0 4 -7 1 -14
-6 -8 -6 -30 -14 -48 -17 -18 -3 -36 -10 -39 -15 -4 -6 -12 -7 -18 -4 -6 4
-11 2 -11 -3 0 -6 -7 -11 -15 -11 -8 0 -23 -4 -33 -9 -101 -52 -141 -68 -151
-61 -15 9 -15 7 3 51 9 21 11 40 6 49 -5 8 -6 18 -3 22 5 9 7 95 3 111 -6 21
-5 33 4 46 8 11 8 13 0 8 -14 -8 -28 51 -15 67 17 21 21 95 7 103 -8 4 -22 23
-33 42 -14 26 -31 39 -71 52 -29 10 -52 13 -52 8 0 -6 -5 -7 -11 -3 -6 3 -32
8 -58 10 -65 6 -93 13 -112 30 -14 13 -18 13 -28 0 -9 -10 -20 -12 -41 -6 -16
4 -31 6 -34 2 -3 -3 -6 0 -6 7 0 8 -5 9 -19 2 -10 -6 -21 -8 -24 -5 -3 3 -14
3 -25 0 -20 -7 -30 -27 -38 -76 -2 -14 -5 -32 -7 -40 -4 -18 -27 -63 -37 -70
-4 -3 -19 -26 -34 -51 -14 -26 -45 -62 -67 -80 -22 -19 -64 -56 -94 -84 -108
-100 -125 -114 -125 -109 0 2 -6 0 -12 -6 -44 -37 -62 -50 -67 -50 -7 0 -34
40 -38 58 -6 24 -10 37 -17 54 -4 9 -9 22 -10 30 -2 7 -8 26 -15 42 -6 16 -9
36 -7 43 3 8 2 12 -2 9 -5 -3 -14 22 -21 54 -10 45 -19 61 -35 67 -49 16 -50
16 -111 -58 -10 -13 -18 -24 -16 -24 2 0 1 -10 -3 -22 -4 -13 -12 -23 -17 -23
-6 0 -7 -4 -4 -10 3 -5 2 -10 -3 -10 -12 0 -43 -86 -34 -94 3 -3 0 -6 -5 -6
-6 0 -10 -8 -8 -17 1 -10 0 -22 -3 -28 -7 -12 -13 -43 -12 -70 0 -11 0 -65 0
-120 0 -61 5 -115 14 -140 8 -22 13 -42 11 -43 -2 -2 -34 -6 -72 -8 -156 -9
-227 -22 -317 -56 -54 -21 -65 -100 -19 -134 13 -9 1 -9 -55 1 -40 6 -72 10
-72 7 0 -2 -6 1 -14 7 -11 9 -15 9 -18 -1 -4 -10 -8 -11 -20 -1 -8 7 -17 10
-20 8 -3 -3 -25 -1 -49 5 -24 6 -55 13 -69 15 -41 7 -114 35 -136 53 -35 30
-51 138 -30 212 4 14 9 38 11 54 2 16 10 33 17 37 7 5 9 9 5 9 -4 0 -3 8 2 18
6 11 6 24 -1 35 -8 15 -6 19 10 24 11 2 28 22 38 42 49 97 69 136 75 141 4 3
23 32 44 65 21 33 41 62 45 65 4 3 22 33 39 67 18 34 39 67 47 73 7 7 11 16 8
21 -3 5 -1 9 5 9 5 0 20 18 32 40 13 22 29 40 36 40 7 0 13 3 13 8 0 4 15 23
33 43 18 20 39 50 46 66 7 17 22 40 34 51 12 10 45 45 72 77 28 32 74 81 104
109 29 28 61 59 69 69 9 9 22 17 29 17 6 0 16 6 20 14 4 7 18 18 29 24 17 9
21 18 17 44 -2 18 -4 41 -3 51 3 68 -8 147 -22 164 -6 7 -8 20 -4 28 3 8 1 15
-4 15 -5 0 -11 9 -15 19 -3 11 -19 26 -35 33 -17 7 -30 18 -30 24 0 28 -82 25
-148 -6 -26 -12 -51 -23 -57 -24 -21 -4 -57 -28 -84 -57 -16 -16 -32 -29 -36
-29 -6 0 -27 -16 -82 -60 -7 -6 -14 -10 -17 -10 -4 0 -131 -119 -169 -160 -38
-39 -65 -70 -61 -70 5 0 -6 -14 -53 -67 -18 -20 -33 -40 -33 -46 0 -5 -20 -28
-44 -51 -23 -23 -51 -59 -61 -79 -9 -20 -21 -37 -26 -37 -5 0 -9 -6 -9 -13 0
-7 -9 -20 -20 -30 -11 -9 -20 -26 -20 -37 0 -11 -4 -20 -10 -20 -5 0 -10 -7
-10 -15 0 -8 -9 -24 -19 -34 -11 -11 -17 -22 -13 -25 3 -3 -1 -6 -8 -6 -7 0
-10 -3 -7 -6 4 -4 -2 -19 -12 -33 -17 -24 -46 -72 -69 -117 -46 -88 -116 -264
-105 -264 3 0 1 -6 -4 -12 -9 -11 -36 -82 -38 -98 0 -3 -3 -9 -6 -15 -4 -5 -5
-18 -4 -27 2 -10 0 -18 -4 -18 -4 0 -9 -19 -12 -42 -5 -53 -3 -264 3 -298 21
-108 65 -193 138 -268 l60 -61 -88 -130 c-80 -120 -112 -153 -112 -117 0 8 -4
16 -8 18 -5 2 -23 24 -40 50 -61 89 -148 123 -204 78 -16 -12 -28 -28 -28 -36
0 -8 -15 -38 -33 -67 -40 -64 -65 -120 -110 -258 -36 -105 -63 -215 -65 -255
0 -18 -115 -196 -160 -249 -9 -11 -24 -31 -33 -45 -10 -14 -25 -34 -35 -45
-11 -11 -32 -36 -48 -55 l-29 -35 7 67 c3 37 13 95 20 130 16 70 29 145 28
168 -1 39 32 124 108 282 49 102 57 157 30 214 -37 77 -93 119 -174 130 -54 8
-101 -7 -165 -52 -49 -33 -50 -33 -56 -11 -9 29 -64 116 -90 142 -52 53 -96
70 -181 70 -80 0 -83 -1 -150 -46 -38 -25 -82 -54 -99 -64 -146 -89 -306 -400
-366 -709 -40 -206 -12 -360 86 -460 47 -49 68 -55 173 -52 82 2 94 5 129 31
65 50 193 185 263 278 19 25 37 47 40 47 3 0 4 -30 2 -67 -7 -132 48 -300 122
-374 91 -92 223 -103 333 -28 77 53 133 116 259 291 51 71 57 76 71 62 54 -54
142 -87 198 -74 41 9 61 30 71 75 8 34 85 197 97 206 5 3 8 8 7 10 -4 6 229
469 235 469 3 0 2 -8 -3 -17 -26 -51 -53 -152 -57 -217 -2 -40 -8 -84 -13 -97
-38 -107 32 -249 137 -279 87 -24 125 10 239 216 125 227 140 245 100 124 -29
-88 -32 -106 -32 -235 -1 -233 18 -301 120 -411 18 -20 87 -51 141 -64 95 -22
163 8 275 121 43 44 74 69 69 56 -9 -22 -30 -140 -37 -206 -12 -103 0 -195 35
-284 16 -40 101 -120 158 -147 62 -31 161 -33 213 -6 44 24 135 117 227 231
40 50 78 97 86 105 21 23 277 366 334 448 46 64 51 70 57 49 20 -83 134 -216
223 -260 110 -56 235 -66 336 -26 57 23 213 128 268 182 19 19 41 48 48 65 7
16 23 34 36 40 20 9 54 47 140 154 8 9 21 30 30 45 8 15 25 42 35 58 11 17 23
38 26 47 7 20 19 24 89 33 79 9 115 16 194 37 40 10 75 17 77 16 1 -2 5 -15 7
-28 9 -47 19 -85 44 -170 14 -46 27 -92 28 -102 3 -13 -19 -31 -82 -69 -174
-105 -343 -252 -414 -358 -27 -42 -53 -112 -65 -174 -5 -29 37 -145 73 -202
78 -125 327 -194 526 -146 154 37 304 178 362 341 18 49 17 47 35 138 13 63 9
290 -6 339 -5 19 1 26 47 47 68 31 150 77 167 94 8 6 21 16 31 21 16 9 18 2
19 -76 3 -105 14 -152 48 -193 53 -62 129 -82 196 -52 36 16 49 29 76 83 49
94 95 169 104 169 4 0 8 6 8 14 0 8 4 16 8 18 5 2 23 24 40 50 18 25 38 52 45
60 7 7 33 47 59 88 48 78 55 87 129 156 24 23 64 69 88 103 24 34 45 60 47 58
1 -1 -19 -47 -46 -102 -26 -55 -64 -156 -84 -225 -20 -69 -41 -141 -46 -160
-34 -116 -34 -200 1 -305 19 -58 34 -81 84 -131 75 -76 125 -109 193 -124 138
-32 239 38 395 272 52 78 67 92 67 63 0 -26 49 -114 83 -149 45 -47 79 -56
178 -52 77 3 91 6 125 32 72 54 213 204 278 296 l33 47 -5 -69 c-8 -120 27
-260 88 -351 16 -24 52 -60 81 -79 48 -32 57 -35 128 -35 102 0 154 27 253
130 97 103 254 328 329 475 24 47 46 87 50 90 3 3 13 26 23 52 10 26 21 50 26
53 20 13 62 113 67 162 7 64 -7 96 -48 113 -23 10 -35 9 -66 -6 -42 -21 -64
-51 -253 -339 -63 -96 -124 -185 -135 -198 -11 -12 -33 -40 -49 -62 -16 -22
-45 -58 -64 -79 l-35 -40 6 60 c8 66 11 88 33 194 9 41 16 89 15 105 0 38 38
143 100 267 59 121 67 167 41 229 -39 91 -126 146 -213 136 -51 -6 -119 -36
-153 -69 l-21 -19 -13 32 c-19 46 -70 119 -106 151 -34 30 -104 58 -145 58
-17 0 -30 8 -37 24 -10 21 -8 23 15 24 48 3 64 8 77 27 8 10 14 15 14 9 0 -5
4 -3 8 4 5 7 29 13 55 15 26 1 47 6 47 10 0 5 6 5 13 0 18 -12 142 -10 153 2
5 5 10 18 10 28 3 44 4 50 11 44 3 -4 13 2 20 13 8 11 19 18 24 15 5 -4 9 -1
9 5 0 6 4 9 9 5 5 -3 12 -2 15 3 2 4 17 8 33 7 15 0 30 3 33 7 3 4 21 8 38 10
25 2 32 6 29 18 -2 9 2 22 10 29 15 13 119 23 138 12 13 -7 32 -10 82 -13 25
-1 39 -6 35 -13 -3 -5 2 -3 13 5 10 8 20 14 22 13 10 -8 33 -1 47 13 21 20 22
84 1 84 -8 0 -15 3 -15 8 0 7 -63 32 -87 34 -7 1 -13 5 -13 10 0 4 -3 7 -7 6
-5 -1 -21 4 -36 10 -16 7 -34 12 -41 12 -6 0 -16 4 -22 10 -5 5 -22 11 -37 12
-15 1 -27 6 -27 11 0 4 -6 7 -12 6 -12 -2 -50 11 -90 32 -10 5 -27 9 -38 9
-11 0 -20 5 -20 12 0 6 -3 9 -6 5 -4 -3 -24 3 -45 14 -22 11 -39 16 -39 12 0
-5 -4 -3 -8 2 -4 6 -27 21 -52 34 -25 14 -71 42 -102 63 -31 21 -62 38 -67 38
-6 0 -11 4 -11 9 0 5 -13 14 -30 21 -16 7 -30 16 -30 21 0 5 -3 8 -7 8 -20 -3
-34 2 -28 11 3 6 -1 10 -9 10 -16 0 -80 34 -108 58 -10 8 -18 11 -18 6 0 -5
-4 -4 -8 1 -4 6 -36 26 -72 44 -36 18 -70 40 -76 47 -6 8 -14 11 -18 7 -4 -4
-10 -3 -14 2 -4 6 -38 26 -75 44 -37 19 -77 43 -89 53 -11 9 -24 15 -29 13
-20 -13 -16 19 9 81 47 112 73 200 108 353 28 126 32 161 29 253 -3 100 -6
112 -36 167 -94 171 -321 153 -522 -42 -65 -64 -111 -121 -211 -262 -43 -60
-82 -114 -86 -118 -4 -5 -31 3 -60 17 -29 14 -56 23 -60 21 -4 -3 -11 2 -14
10 -3 8 -9 14 -13 14 -15 -3 -113 44 -113 53 0 6 -7 8 -15 4 -8 -3 -19 2 -24
12 -6 9 -11 13 -11 9 0 -5 -13 1 -29 12 -15 11 -31 18 -35 14 -3 -3 -6 -1 -6
6 0 6 -8 15 -19 19 -60 23 -250 212 -251 249 0 12 -141 167 -309 341 -25 25
-64 67 -87 93 -23 26 -45 45 -48 42 -3 -4 -6 -1 -6 6 0 18 -779 791 -798 791
-1 0 -20 18 -42 40 -22 22 -42 40 -45 40 -3 0 -21 15 -39 33 -31 29 -94 85
-171 151 -16 14 -43 37 -60 51 -16 14 -51 42 -77 62 -27 21 -48 41 -48 45 0 4
-4 8 -10 8 -5 0 -18 8 -29 18 -10 9 -33 28 -51 42 -19 14 -39 31 -46 38 -7 6
-15 12 -19 12 -4 0 -12 6 -19 13 -7 6 -25 21 -41 32 -25 18 -91 70 -122 95 -7
6 -17 10 -22 10 -6 0 -14 6 -18 13 -9 14 -41 35 -65 43 -10 4 -18 11 -18 16 0
5 -4 6 -10 3 -5 -3 -10 -1 -10 4 0 6 -7 11 -15 11 -8 0 -15 5 -15 10 0 6 -5
10 -11 10 -12 0 -172 119 -177 132 -2 4 -8 8 -14 8 -6 0 -26 15 -44 34 -28 29
-34 46 -24 76 14 42 -14 123 -60 172 -11 12 -20 28 -20 35 0 7 -4 21 -9 31
-23 42 -51 113 -51 127 0 8 -5 15 -10 15 -6 0 -9 3 -8 8 1 4 -8 30 -21 59 -13
29 -21 55 -20 58 2 4 -4 11 -14 16 -9 6 -15 14 -12 20 4 5 1 9 -4 9 -6 0 -11
7 -11 15 0 8 -4 15 -10 15 -5 0 -10 7 -10 15 0 8 -4 15 -10 15 -5 0 -10 6 -10
13 0 7 -9 19 -20 27 -11 8 -20 19 -20 25 0 13 -95 75 -115 75 -8 0 -15 5 -15
11 0 5 -3 8 -7 6 -5 -3 -19 0 -33 6 -28 11 -34 13 -71 20 -29 6 -54 -10 -120
-76 l-38 -37 -20 22 c-12 12 -29 23 -38 24 -21 3 -58 -27 -44 -36 6 -3 6 -11
2 -19 -7 -11 -13 -11 -32 3 -13 9 -31 16 -39 16 -9 0 -27 18 -39 41 -19 33
-28 40 -46 36 -18 -3 -25 1 -29 20 -4 12 -13 23 -21 23 -8 0 -15 6 -15 14 0 7
-7 19 -16 26 -20 17 -17 1 12 -55 31 -62 18 -70 -32 -19 -25 25 -42 50 -38 56
5 7 2 9 -9 5 -15 -6 -61 31 -63 50 -2 21 -18 43 -30 43 -8 0 -14 7 -14 15 0 8
-4 15 -10 15 -5 0 -10 5 -10 10 0 6 -20 36 -45 68 -25 31 -49 62 -54 68 -12
15 -35 58 -36 66 0 3 -3 10 -7 14 -5 4 -8 15 -8 24 0 10 -6 23 -14 29 -8 7
-18 26 -21 42 -4 16 -11 29 -16 29 -6 0 -7 5 -4 10 4 6 -1 22 -10 37 -12 17
-13 23 -4 18 11 -6 12 -5 2 6 -7 7 -13 21 -13 31 0 19 -15 24 -25 8z m5250
-4097 c-25 -96 -121 -349 -135 -358 -4 -2 -25 8 -48 22 l-41 27 41 75 c75 141
198 344 205 337 2 -2 -7 -48 -22 -103z m-1784 -615 c23 -35 59 -81 81 -103 21
-22 38 -43 38 -46 0 -3 15 -22 33 -42 17 -20 43 -51 57 -68 14 -18 33 -40 43
-51 9 -10 15 -18 12 -18 -3 0 -1 -6 5 -12 5 -7 26 -32 46 -55 19 -23 35 -44
34 -48 0 -3 10 -16 22 -28 13 -13 37 -41 53 -62 17 -21 44 -53 60 -71 99 -108
106 -117 100 -133 -33 -83 -118 -406 -164 -621 l-37 -175 -40 -28 c-21 -15
-55 -36 -74 -46 -19 -10 -84 -45 -145 -79 l-109 -60 -17 38 c-9 20 -19 55 -22
76 -4 22 -18 93 -34 159 -34 150 -36 232 -7 261 25 25 48 132 39 177 -15 71
-83 128 -154 129 -38 0 -116 -28 -146 -54 -111 -93 -155 -172 -161 -288 -2
-44 0 -98 5 -119 l8 -39 -71 -16 c-39 -9 -90 -20 -114 -25 -46 -10 -44 -14
-27 48 3 11 8 28 10 38 29 137 36 178 39 233 4 84 -20 179 -60 230 -6 8 -14
23 -18 34 -5 15 -2 17 14 13 11 -3 27 2 36 10 8 8 16 14 17 12 2 -2 9 -13 17
-23 13 -18 13 -19 0 -11 -12 6 -12 5 -3 -5 14 -16 73 -4 73 16 0 8 -4 14 -10
14 -5 0 -10 12 -10 26 0 18 4 23 13 17 22 -13 36 -12 30 4 -5 12 -1 14 15 9
23 -8 38 5 82 67 18 26 28 32 38 25 6 -6 12 -7 12 -4 0 4 7 0 16 -9 16 -15 19
-15 41 9 13 15 26 36 28 47 2 12 13 28 23 37 15 15 62 102 62 117 0 3 9 16 21
29 12 13 21 27 20 30 -1 4 6 21 16 39 18 34 20 38 22 63 0 8 6 12 11 9 6 -4
10 10 10 33 0 25 5 42 14 45 8 3 17 25 21 49 4 24 11 48 15 53 7 10 9 19 12
80 1 19 5 35 9 35 4 0 7 20 6 45 -1 25 -1 45 0 45 1 0 20 -28 44 -62z m-2416
-438 c-3 -5 -11 -10 -16 -10 -6 0 -7 5 -4 10 3 6 11 10 16 10 6 0 7 -4 4 -10z
m4607 -573 c6 -9 8 -9 8 1 0 9 5 10 19 3 10 -6 21 -7 25 -4 3 3 6 4 6 1 0 -9
-127 -98 -139 -98 -24 0 -132 -125 -185 -213 -31 -52 -56 -97 -56 -100 0 -3
-13 -34 -28 -69 -16 -35 -35 -79 -43 -98 -7 -19 -25 -47 -39 -62 -14 -14 -45
-50 -70 -79 -73 -86 -130 -147 -218 -236 -91 -92 -89 -93 -52 37 34 117 37
135 30 155 -9 25 28 119 150 375 103 216 129 293 125 363 -4 47 -3 47 23 40
15 -4 39 -7 55 -7 15 -1 27 -3 27 -6 0 -3 28 -6 62 -8 34 -1 65 -7 69 -13 5
-8 8 -8 13 0 5 7 14 8 24 2 20 -10 45 -3 36 11 -3 5 2 17 12 27 17 16 24 17
79 4 32 -8 63 -19 67 -26z m-3136 -39 c-7 -68 -7 -67 -31 -178 -14 -67 -20
-90 -29 -125 -17 -65 -43 -128 -57 -135 -23 -13 -120 4 -134 24 -27 36 -2 159
57 280 21 44 38 87 38 95 0 24 48 78 74 83 14 3 23 1 20 -4 -4 -5 7 -8 22 -6
17 2 28 8 27 16 -2 6 2 12 8 12 8 0 10 -19 5 -62z m2131 22 c-7 -8 -14 -17
-17 -20 -5 -4 -72 -85 -195 -234 -22 -27 -47 -57 -55 -66 -27 -32 -45 -54 -68
-84 -12 -16 -22 -27 -22 -24 0 12 82 253 94 276 16 31 139 154 162 162 8 3 37
6 64 5 41 0 47 -2 37 -15z m-3037 -15 c-13 -15 -35 -11 -24 6 3 5 10 7 15 4 5
-4 9 -1 9 6 0 7 3 9 6 6 4 -4 1 -13 -6 -22z m-5205 -15 c-3 -5 -11 -10 -16
-10 -6 0 -7 5 -4 10 3 6 11 10 16 10 6 0 7 -4 4 -10z m1641 -238 c2 -9 13 -56
25 -103 l23 -85 -34 -50 c-19 -27 -38 -53 -42 -59 -5 -5 -45 -62 -90 -125 -44
-63 -84 -117 -87 -120 -4 -3 -22 -25 -41 -50 -18 -25 -37 -49 -42 -54 -36 -43
169 526 207 574 7 8 21 31 30 50 26 52 46 60 51 22z m7838 -76 c24 -88 26
-107 15 -127 -10 -20 -158 -234 -181 -264 -5 -5 -38 -48 -74 -95 -37 -47 -67
-86 -69 -88 -7 -8 27 113 53 188 91 256 156 409 182 425 5 3 10 13 10 21 0 15
20 43 31 44 3 0 18 -47 33 -104z m-5199 22 c-12 -24 -37 -83 -55 -133 -18 -49
-36 -92 -39 -95 -3 -3 -26 -30 -51 -60 -25 -30 -47 -57 -50 -60 -3 -3 -30 -34
-60 -70 -64 -77 -76 -91 -129 -150 -23 -25 -51 -59 -63 -76 -12 -17 -29 -36
-38 -42 -15 -9 -17 -5 -14 36 4 48 35 137 92 262 46 101 110 270 127 336 18
71 22 75 53 71 15 -3 35 0 44 4 9 5 19 5 22 0 6 -9 40 -7 76 4 17 5 20 4 15
-5 -6 -9 -4 -11 6 -4 8 5 22 7 31 6 10 -2 26 1 35 7 10 6 19 11 20 11 1 0 -9
-19 -22 -42z m-1202 -33 c-3 -9 -8 -14 -10 -11 -3 3 -2 9 2 15 9 16 15 13 8
-4z m2664 -231 c25 -15 72 -37 104 -49 l58 -21 -37 -60 c-95 -154 -210 -264
-320 -307 -50 -20 -89 -22 -94 -5 -15 44 34 203 128 418 51 117 52 118 86 81
16 -17 49 -43 75 -57z m969 -686 c-3 -24 -25 -81 -48 -128 -41 -81 -46 -86
-102 -114 -54 -26 -166 -47 -166 -32 0 4 9 27 20 52 20 44 77 107 139 154 39
29 155 109 159 109 2 1 1 -18 -2 -41z"/>
<path d="M7225 5611 c-3 -5 -2 -12 3 -15 5 -3 9 1 9 9 0 17 -3 19 -12 6z"/>
<path d="M5730 3464 c-147 -28 -248 -88 -347 -207 -13 -15 -23 -30 -23 -33 0
-3 -8 -18 -18 -32 -10 -15 -25 -49 -35 -77 -86 -256 0 -517 217 -657 167 -108
416 -117 605 -22 333 167 402 622 134 880 -132 126 -343 185 -533 148z m257
-269 c64 -29 129 -93 156 -153 18 -42 26 -155 15 -202 -24 -97 -130 -196 -228
-215 -63 -11 -71 -12 -131 -3 -100 13 -173 61 -226 148 -39 66 -47 173 -18
260 19 57 85 131 144 160 87 43 199 45 288 5z"/>
<path d="M6940 3468 c-84 -13 -173 -45 -237 -88 -77 -52 -82 -56 -133 -120
-200 -254 -138 -634 131 -802 103 -64 232 -94 372 -85 50 3 106 8 122 12 70
14 147 37 188 54 44 19 45 19 40 0 -3 -11 2 -28 12 -39 15 -17 31 -20 104 -20
47 0 95 3 106 6 19 5 60 86 120 239 l15 40 167 0 166 -1 11 -24 c5 -14 29 -67
53 -118 24 -50 43 -96 43 -102 0 -5 11 -17 25 -26 19 -13 44 -15 120 -12 149
5 149 -5 8 313 -41 94 -90 202 -107 240 -18 39 -77 170 -131 292 -94 214 -100
223 -133 234 -43 14 -129 7 -148 -13 -9 -8 -74 -152 -145 -319 -71 -167 -133
-313 -138 -324 -5 -11 -17 -38 -27 -60 -9 -22 -34 -80 -55 -130 l-38 -90 -1
200 c-1 213 -3 226 -51 243 -28 9 -312 8 -352 -1 -33 -9 -44 -46 -40 -136 3
-85 20 -100 116 -101 l67 0 0 -48 c0 -48 0 -48 -42 -59 -58 -16 -204 -10 -248
10 -124 55 -192 171 -183 311 7 108 69 202 167 254 46 24 61 27 156 27 110 0
139 -8 268 -68 93 -43 122 -17 122 109 0 99 -8 111 -100 147 -133 51 -275 71
-390 55z m1060 -554 c0 -2 -25 -4 -55 -4 -30 0 -55 2 -55 4 0 2 7 21 16 42 9
22 21 50 26 63 8 23 11 20 38 -38 17 -35 30 -65 30 -67z"/>
<path d="M4520 3457 c-30 -7 -48 -42 -41 -77 2 -8 61 -89 133 -180 71 -91 135
-172 141 -180 7 -9 25 -33 42 -55 l30 -40 0 -252 c1 -309 -6 -293 130 -293
137 0 130 -16 132 297 l1 255 33 41 c19 23 41 50 49 60 37 45 46 57 65 83 11
16 28 36 38 46 9 10 17 20 17 23 0 3 7 13 15 22 83 102 135 174 135 190 0 10
-7 29 -16 41 -14 20 -23 22 -122 22 -69 -1 -112 -5 -122 -13 -16 -12 -47 -50
-90 -107 -14 -18 -32 -41 -41 -51 -8 -10 -24 -30 -35 -44 -10 -15 -28 -38 -40
-51 l-21 -25 -44 58 c-24 32 -46 60 -49 63 -3 3 -25 31 -50 63 -25 32 -53 68
-62 80 -14 19 -30 23 -108 27 -50 3 -104 2 -120 -3z"/>
</g>
</svg>
